{
	"asset":{
		"generator":"Khronos glTF Blender I/O v4.1.63",
		"version":"2.0"
	},
	"scene":0,
	"scenes":[
		{
			"name":"Scene",
			"nodes":[
				0
			]
		}
	],
	"nodes":[
		{
			"mesh":0,
			"name":"high_tnt_crate2_group8_polySurface6_question_mark_0.001"
		}
	],
	"materials":[
		{
			"doubleSided":true,
			"emissiveFactor":[
				0.06636696308851242,
				0.010633093304932117,
				0.002206968143582344
			],
			"name":"question_mark.001",
			"normalTexture":{
				"index":0
			},
			"occlusionTexture":{
				"index":1
			},
			"pbrMetallicRoughness":{
				"baseColorTexture":{
					"index":2
				},
				"metallicRoughnessTexture":{
					"index":1
				}
			}
		}
	],
	"meshes":[
		{
			"name":"high_tnt_crate2_group8_polySurface6_question_mark_0.001",
			"primitives":[
				{
					"attributes":{
						"POSITION":0,
						"NORMAL":1,
						"TEXCOORD_0":2
					},
					"indices":3,
					"material":0
				}
			]
		}
	],
	"textures":[
		{
			"sampler":0,
			"source":0
		},
		{
			"sampler":0,
			"source":1
		},
		{
			"sampler":0,
			"source":2
		}
	],
	"images":[
		{
			"mimeType":"image/png",
			"name":"Image_8",
			"uri":"box/Image_8.png"
		},
		{
			"mimeType":"image/png",
			"name":"Image_7",
			"uri":"box/Image_7.png"
		},
		{
			"mimeType":"image/png",
			"name":"Image_6",
			"uri":"box/Image_6.png"
		}
	],
	"accessors":[
		{
			"bufferView":0,
			"componentType":5126,
			"count":2533,
			"max":[
				13.769125938415527,
				7.6650567054748535,
				6.38557243347168
			],
			"min":[
				9.869580268859863,
				3.7531237602233887,
				2.5785160064697266
			],
			"type":"VEC3"
		},
		{
			"bufferView":1,
			"componentType":5126,
			"count":2533,
			"type":"VEC3"
		},
		{
			"bufferView":2,
			"componentType":5126,
			"count":2533,
			"type":"VEC2"
		},
		{
			"bufferView":3,
			"componentType":5123,
			"count":10704,
			"type":"SCALAR"
		}
	],
	"bufferViews":[
		{
			"buffer":0,
			"byteLength":30396,
			"byteOffset":0,
			"target":34962
		},
		{
			"buffer":0,
			"byteLength":30396,
			"byteOffset":30396,
			"target":34962
		},
		{
			"buffer":0,
			"byteLength":20264,
			"byteOffset":60792,
			"target":34962
		},
		{
			"buffer":0,
			"byteLength":21408,
			"byteOffset":81056,
			"target":34963
		}
	],
	"samplers":[
		{
			"magFilter":9729,
			"minFilter":9987
		}
	],
	"buffers":[
		{
			"byteLength":102464,
			"uri":"box1.bin"
		}
	]
}
