{
	"asset":{
		"generator":"Khronos glTF Blender I/O v4.1.63",
		"version":"2.0"
	},
	"scene":0,
	"scenes":[
		{
			"name":"Scene",
			"nodes":[
				0
			]
		}
	],
	"nodes":[
		{
			"mesh":0,
			"name":"high_tnt_crate2_group8_polySurface5_nitro_crate_0.001"
		}
	],
	"materials":[
		{
			"doubleSided":true,
			"name":"nitro_crate.001",
			"normalTexture":{
				"index":0
			},
			"occlusionTexture":{
				"index":1
			},
			"pbrMetallicRoughness":{
				"baseColorTexture":{
					"index":2
				},
				"metallicRoughnessTexture":{
					"index":1
				}
			}
		}
	],
	"meshes":[
		{
			"name":"high_tnt_crate2_group8_polySurface5_nitro_crate_0.001",
			"primitives":[
				{
					"attributes":{
						"POSITION":0,
						"NORMAL":1,
						"TEXCOORD_0":2
					},
					"indices":3,
					"material":0
				}
			]
		}
	],
	"textures":[
		{
			"sampler":0,
			"source":0
		},
		{
			"sampler":0,
			"source":1
		},
		{
			"sampler":0,
			"source":2
		}
	],
	"images":[
		{
			"mimeType":"image/png",
			"name":"Image_5",
			"uri":"box/Image_5.png"
		},
		{
			"mimeType":"image/png",
			"name":"Image_4",
			"uri":"box/Image_4.png"
		},
		{
			"mimeType":"image/jpeg",
			"name":"Image_3",
			"uri":"box/Image_3.jpg"
		}
	],
	"accessors":[
		{
			"bufferView":0,
			"componentType":5126,
			"count":2564,
			"max":[
				14.405810356140137,
				4.016964912414551,
				6.702175140380859
			],
			"min":[
				9.395100593566895,
				0.16057348251342773,
				1.6404705047607422
			],
			"type":"VEC3"
		},
		{
			"bufferView":1,
			"componentType":5126,
			"count":2564,
			"type":"VEC3"
		},
		{
			"bufferView":2,
			"componentType":5126,
			"count":2564,
			"type":"VEC2"
		},
		{
			"bufferView":3,
			"componentType":5123,
			"count":10704,
			"type":"SCALAR"
		}
	],
	"bufferViews":[
		{
			"buffer":0,
			"byteLength":30768,
			"byteOffset":0,
			"target":34962
		},
		{
			"buffer":0,
			"byteLength":30768,
			"byteOffset":30768,
			"target":34962
		},
		{
			"buffer":0,
			"byteLength":20512,
			"byteOffset":61536,
			"target":34962
		},
		{
			"buffer":0,
			"byteLength":21408,
			"byteOffset":82048,
			"target":34963
		}
	],
	"samplers":[
		{
			"magFilter":9729,
			"minFilter":9987
		}
	],
	"buffers":[
		{
			"byteLength":103456,
			"uri":"box2.bin"
		}
	]
}
