{
	"asset":{
		"generator":"Khronos glTF Blender I/O v4.1.63",
		"version":"2.0"
	},
	"scene":0,
	"scenes":[
		{
			"name":"Scene",
			"nodes":[
				0
			]
		}
	],
	"nodes":[
		{
			"mesh":0,
			"name":"high_tnt_crate2_group8_polySurface4_tnt_crate_01_0.001"
		}
	],
	"materials":[
		{
			"doubleSided":true,
			"name":"tnt_crate_01.001",
			"normalTexture":{
				"index":0
			},
			"occlusionTexture":{
				"index":1
			},
			"pbrMetallicRoughness":{
				"baseColorTexture":{
					"index":2
				},
				"metallicRoughnessTexture":{
					"index":1
				}
			}
		}
	],
	"meshes":[
		{
			"name":"high_tnt_crate2_group8_polySurface4_tnt_crate_01_0.001",
			"primitives":[
				{
					"attributes":{
						"POSITION":0,
						"NORMAL":1,
						"TEXCOORD_0":2
					},
					"indices":3,
					"material":0
				}
			]
		}
	],
	"textures":[
		{
			"sampler":0,
			"source":0
		},
		{
			"sampler":0,
			"source":1
		},
		{
			"sampler":0,
			"source":2
		}
	],
	"images":[
		{
			"mimeType":"image/png",
			"name":"Image_2",
			"uri":"box/Image_2.png"
		},
		{
			"mimeType":"image/png",
			"name":"Image_1",
			"uri":"box/Image_1.png"
		},
		{
			"mimeType":"image/jpeg",
			"name":"Image_0",
			"uri":"box/Image_0.jpg"
		}
	],
	"accessors":[
		{
			"bufferView":0,
			"componentType":5126,
			"count":2534,
			"max":[
				17.862468719482422,
				4.104641914367676,
				7.136440753936768
			],
			"min":[
				13.32073974609375,
				0.1848587989807129,
				2.5912046432495117
			],
			"type":"VEC3"
		},
		{
			"bufferView":1,
			"componentType":5126,
			"count":2534,
			"type":"VEC3"
		},
		{
			"bufferView":2,
			"componentType":5126,
			"count":2534,
			"type":"VEC2"
		},
		{
			"bufferView":3,
			"componentType":5123,
			"count":10704,
			"type":"SCALAR"
		}
	],
	"bufferViews":[
		{
			"buffer":0,
			"byteLength":30408,
			"byteOffset":0,
			"target":34962
		},
		{
			"buffer":0,
			"byteLength":30408,
			"byteOffset":30408,
			"target":34962
		},
		{
			"buffer":0,
			"byteLength":20272,
			"byteOffset":60816,
			"target":34962
		},
		{
			"buffer":0,
			"byteLength":21408,
			"byteOffset":81088,
			"target":34963
		}
	],
	"samplers":[
		{
			"magFilter":9729,
			"minFilter":9987
		}
	],
	"buffers":[
		{
			"byteLength":102496,
			"uri":"box3.bin"
		}
	]
}
