{
	"asset":{
		"generator":"Khronos glTF Blender I/O v4.1.63",
		"version":"2.0"
	},
	"scene":0,
	"scenes":[
		{
			"name":"Scene",
			"nodes":[
				0
			]
		}
	],
	"nodes":[
		{
			"mesh":0,
			"name":"duck_body"
		}
	],
	"materials":[
		{
			"doubleSided":true,
			"name":"duck_body",
			"normalTexture":{
				"index":0
			},
			"pbrMetallicRoughness":{
				"baseColorTexture":{
					"index":1
				},
				"metallicFactor":0,
				"roughnessFactor":0.22072100639343262
			}
		}
	],
	"meshes":[
		{
			"name":"Object_1",
			"primitives":[
				{
					"attributes":{
						"POSITION":0,
						"NORMAL":1,
						"TEXCOORD_0":2
					},
					"indices":3,
					"material":0
				}
			]
		}
	],
	"textures":[
		{
			"sampler":0,
			"source":0
		},
		{
			"sampler":0,
			"source":1
		}
	],
	"images":[
		{
			"mimeType":"image/png",
			"name":"Image_2",
			"uri":"duck/Image_2.png"
		},
		{
			"mimeType":"image/png",
			"name":"Image_1",
			"uri":"duck/Image_1.png"
		}
	],
	"accessors":[
		{
			"bufferView":0,
			"componentType":5126,
			"count":2044,
			"max":[
				8.424537658691406,
				18.631732940673828,
				4.634176254272461
			],
			"min":[
				-15.57763671875,
				-0.0889182984828949,
				-19.36799430847168
			],
			"type":"VEC3"
		},
		{
			"bufferView":1,
			"componentType":5126,
			"count":2044,
			"type":"VEC3"
		},
		{
			"bufferView":2,
			"componentType":5126,
			"count":2044,
			"type":"VEC2"
		},
		{
			"bufferView":3,
			"componentType":5123,
			"count":10872,
			"type":"SCALAR"
		}
	],
	"bufferViews":[
		{
			"buffer":0,
			"byteLength":24528,
			"byteOffset":0,
			"target":34962
		},
		{
			"buffer":0,
			"byteLength":24528,
			"byteOffset":24528,
			"target":34962
		},
		{
			"buffer":0,
			"byteLength":16352,
			"byteOffset":49056,
			"target":34962
		},
		{
			"buffer":0,
			"byteLength":21744,
			"byteOffset":65408,
			"target":34963
		}
	],
	"samplers":[
		{
			"magFilter":9729,
			"minFilter":9987
		}
	],
	"buffers":[
		{
			"byteLength":87152,
			"uri":"duckbody.bin"
		}
	]
}
