{
	"asset":{
		"generator":"Khronos glTF Blender I/O v4.1.63",
		"version":"2.0"
	},
	"extensionsUsed":[
		"KHR_materials_transmission",
		"KHR_materials_volume",
		"KHR_materials_variants"
	],
	"extensionsRequired":[
		"KHR_materials_variants"
	],
	"extensions":{
		"KHR_materials_variants":{
			"variants":[
				{
					"name":"Surface Color"
				}
			]
		}
	},
	"scene":0,
	"scenes":[
		{
			"name":"Scene",
			"nodes":[
				0
			]
		}
	],
	"nodes":[
		{
			"mesh":0,
			"name":"Dragon"
		}
	],
	"materials":[
		{
			"doubleSided":false,
			"extensions":{
				"KHR_materials_transmission":{
					"transmissionFactor":1
				},
				"KHR_materials_volume":{
					"attenuationColor":[
						1,
						1,
						1
					],
					"thicknessFactor":2.2699999809265137,
					"thicknessTexture":{
						"index":0
					}
				}
			},
			"name":"Dragon with Surface Coloring Only",
			"pbrMetallicRoughness":{
				"baseColorFactor":[
					0.9210000038146973,
					0.6399999856948853,
					0.06400000303983688,
					1
				],
				"metallicFactor":0,
				"roughnessFactor":0
			}
		}
	],
	"meshes":[
		{
			"name":"Dragon",
			"primitives":[
				{
					"attributes":{
						"POSITION":0,
						"NORMAL":1,
						"TEXCOORD_0":2
					},
					"extensions":{
						"KHR_materials_variants":{
							"mappings":[
								{
									"material":0,
									"variants":[
										0
									]
								}
							]
						}
					},
					"indices":3
				}
			]
		}
	],
	"textures":[
		{
			"sampler":0,
			"source":0
		}
	],
	"images":[
		{
			"mimeType":"image/jpeg",
			"name":"Image_1",
			"uri":"Image_1.jpg"
		}
	],
	"accessors":[
		{
			"bufferView":0,
			"componentType":5126,
			"count":76809,
			"max":[
				16.152267456054688,
				22.7442684173584,
				7.223330974578857
			],
			"min":[
				-16.152267456054688,
				-0.03972068056464195,
				-7.223330497741699
			],
			"type":"VEC3"
		},
		{
			"bufferView":1,
			"componentType":5126,
			"count":76809,
			"type":"VEC3"
		},
		{
			"bufferView":2,
			"componentType":5126,
			"count":76809,
			"type":"VEC2"
		},
		{
			"bufferView":3,
			"componentType":5125,
			"count":273648,
			"type":"SCALAR"
		}
	],
	"bufferViews":[
		{
			"buffer":0,
			"byteLength":921708,
			"byteOffset":0,
			"target":34962
		},
		{
			"buffer":0,
			"byteLength":921708,
			"byteOffset":921708,
			"target":34962
		},
		{
			"buffer":0,
			"byteLength":614472,
			"byteOffset":1843416,
			"target":34962
		},
		{
			"buffer":0,
			"byteLength":1094592,
			"byteOffset":2457888,
			"target":34963
		}
	],
	"samplers":[
		{
			"magFilter":9729,
			"minFilter":9987
		}
	],
	"buffers":[
		{
			"byteLength":3552480,
			"uri":"dragon.bin"
		}
	]
}
