{
	"asset":{
		"version":"2.0",
		"generator":"Houdini GLTF 2.0 Exporter"
	},
	"accessors":[
		{
			"bufferView":0,
			"componentType":5121,
			"count":6,
			"type":"SCALAR",
			"min":[0
			],
			"max":[3
			]
		},
		{
			"bufferView":1,
			"componentType":5126,
			"count":4,
			"type":"VEC3",
			"min":[-2.5,-2.5,0
			],
			"max":[2.5,2.5,0
			]
		},
		{
			"bufferView":2,
			"componentType":5126,
			"count":4,
			"type":"VEC3",
			"min":[0,0,1
			],
			"max":[0,0,1
			]
		},
		{
			"bufferView":3,
			"componentType":5126,
			"count":4,
			"type":"VEC4",
			"min":[1,0,0,1
			],
			"max":[1,0,0,1
			]
		},
		{
			"bufferView":4,
			"componentType":5126,
			"count":4,
			"type":"VEC2",
			"min":[0,0
			],
			"max":[1,1
			]
		}
	],
	"buffers":[
		{
			"uri":"material_data.bin",
			"byteLength":200
		}
	],
	"bufferViews":[
		{
			"buffer":0,
			"byteLength":6,
			"target":34963
		},
		{
			"buffer":0,
			"byteOffset":8,
			"byteLength":48,
			"target":34962
		},
		{
			"buffer":0,
			"byteOffset":56,
			"byteLength":48,
			"target":34962
		},
		{
			"buffer":0,
			"byteOffset":104,
			"byteLength":64,
			"target":34962
		},
		{
			"buffer":0,
			"byteOffset":168,
			"byteLength":32,
			"target":34962
		}
	],
	"nodes":[
		{
			"mesh":0
		}
	],
	"meshes":[
		{
			"primitives":[
				{
					"attributes":{
						"TEXCOORD_0":4,
						"TANGENT":3,
						"POSITION":1,
						"NORMAL":2
					},
					"indices":0,
					"material":0
				}
			]
		}
	],
	"materials":[
		{
			"pbrMetallicRoughness":{
				"metallicFactor":0,
				"baseColorTexture":{
					"index":0
				}
			}
		}
	],
	"scenes":[
		{
			"nodes":[0
			]
		}
	],
	"textures":[
		{
			"source":0
		}
	],
	"images":[
		{
			"uri":"uvgrid_color.png",
			"mimeType":"image/png"
		}
	],
	"scene":0
}
