{
	"asset":{
		"generator":"Khronos glTF Blender I/O v4.1.63",
		"version":"2.0"
	},
	"scene":0,
	"scenes":[
		{
			"name":"Scene",
			"nodes":[
				0
			]
		}
	],
	"nodes":[
		{
			"mesh":0,
			"name":"high_tnt_crate2_group8_polySurface5_nitro_crate_0"
		}
	],
	"materials":[
		{
			"doubleSided":true,
			"name":"nitro_crate",
			"normalTexture":{
				"index":0
			},
			"occlusionTexture":{
				"index":1
			},
			"pbrMetallicRoughness":{
				"baseColorTexture":{
					"index":2
				},
				"metallicRoughnessTexture":{
					"index":1
				}
			}
		}
	],
	"meshes":[
		{
			"name":"high_tnt_crate2_group8_polySurface5_nitro_crate_0",
			"primitives":[
				{
					"attributes":{
						"POSITION":0,
						"NORMAL":1,
						"TEXCOORD_0":2
					},
					"indices":3,
					"material":0
				}
			]
		}
	],
	"textures":[
		{
			"sampler":0,
			"source":0
		},
		{
			"sampler":0,
			"source":1
		},
		{
			"sampler":0,
			"source":2
		}
	],
	"images":[
		{
			"mimeType":"image/png",
			"name":"Image_5",
			"uri":"textures/Image_5.png"
		},
		{
			"mimeType":"image/png",
			"name":"Image_4",
			"uri":"textures/Image_4.png"
		},
		{
			"mimeType":"image/jpeg",
			"name":"Image_3",
			"uri":"textures/Image_3.jpg"
		}
	],
	"accessors":[
		{
			"bufferView":0,
			"componentType":5126,
			"count":2541,
			"max":[
				11.603195190429688,
				1.7553050518035889,
				-11.49518871307373
			],
			"min":[
				7.359500885009766,
				-2.101086139678955,
				-15.814177513122559
			],
			"type":"VEC3"
		},
		{
			"bufferView":1,
			"componentType":5126,
			"count":2541,
			"type":"VEC3"
		},
		{
			"bufferView":2,
			"componentType":5126,
			"count":2541,
			"type":"VEC2"
		},
		{
			"bufferView":3,
			"componentType":5123,
			"count":10704,
			"type":"SCALAR"
		}
	],
	"bufferViews":[
		{
			"buffer":0,
			"byteLength":30492,
			"byteOffset":0,
			"target":34962
		},
		{
			"buffer":0,
			"byteLength":30492,
			"byteOffset":30492,
			"target":34962
		},
		{
			"buffer":0,
			"byteLength":20328,
			"byteOffset":60984,
			"target":34962
		},
		{
			"buffer":0,
			"byteLength":21408,
			"byteOffset":81312,
			"target":34963
		}
	],
	"samplers":[
		{
			"magFilter":9729,
			"minFilter":9987
		}
	],
	"buffers":[
		{
			"byteLength":102720,
			"uri":"box1.bin"
		}
	]
}
