{
	"asset":{
		"generator":"Khronos glTF Blender I/O v4.1.63",
		"version":"2.0"
	},
	"scene":0,
	"scenes":[
		{
			"name":"Scene",
			"nodes":[
				0
			]
		}
	],
	"nodes":[
		{
			"mesh":0,
			"name":"high_tnt_crate2_group8_polySurface6_question_mark_0"
		}
	],
	"materials":[
		{
			"doubleSided":true,
			"emissiveFactor":[
				0.06636696308851242,
				0.010633093304932117,
				0.002206968143582344
			],
			"name":"question_mark",
			"normalTexture":{
				"index":0
			},
			"occlusionTexture":{
				"index":1
			},
			"pbrMetallicRoughness":{
				"baseColorTexture":{
					"index":2
				},
				"metallicRoughnessTexture":{
					"index":1
				}
			}
		}
	],
	"meshes":[
		{
			"name":"high_tnt_crate2_group8_polySurface6_question_mark_0",
			"primitives":[
				{
					"attributes":{
						"POSITION":0,
						"NORMAL":1,
						"TEXCOORD_0":2
					},
					"indices":3,
					"material":0
				}
			]
		}
	],
	"textures":[
		{
			"sampler":0,
			"source":0
		},
		{
			"sampler":0,
			"source":1
		},
		{
			"sampler":0,
			"source":2
		}
	],
	"images":[
		{
			"mimeType":"image/png",
			"name":"Image_8",
			"uri":"textures/Image_8.png"
		},
		{
			"mimeType":"image/png",
			"name":"Image_7",
			"uri":"textures/Image_7.png"
		},
		{
			"mimeType":"image/png",
			"name":"Image_6",
			"uri":"textures/Image_6.png"
		}
	],
	"accessors":[
		{
			"bufferView":0,
			"componentType":5126,
			"count":2530,
			"max":[
				11.87226676940918,
				5.403397083282471,
				-10.934469223022461
			],
			"min":[
				7.125958442687988,
				1.4914642572402954,
				-15.739459991455078
			],
			"type":"VEC3"
		},
		{
			"bufferView":1,
			"componentType":5126,
			"count":2530,
			"type":"VEC3"
		},
		{
			"bufferView":2,
			"componentType":5126,
			"count":2530,
			"type":"VEC2"
		},
		{
			"bufferView":3,
			"componentType":5123,
			"count":10704,
			"type":"SCALAR"
		}
	],
	"bufferViews":[
		{
			"buffer":0,
			"byteLength":30360,
			"byteOffset":0,
			"target":34962
		},
		{
			"buffer":0,
			"byteLength":30360,
			"byteOffset":30360,
			"target":34962
		},
		{
			"buffer":0,
			"byteLength":20240,
			"byteOffset":60720,
			"target":34962
		},
		{
			"buffer":0,
			"byteLength":21408,
			"byteOffset":80960,
			"target":34963
		}
	],
	"samplers":[
		{
			"magFilter":9729,
			"minFilter":9987
		}
	],
	"buffers":[
		{
			"byteLength":102368,
			"uri":"box2.bin"
		}
	]
}
