{
	"asset":{
		"generator":"Khronos glTF Blender I/O v4.1.63",
		"version":"2.0"
	},
	"scene":0,
	"scenes":[
		{
			"name":"Scene",
			"nodes":[
				0
			]
		}
	],
	"nodes":[
		{
			"mesh":0,
			"name":"high_tnt_crate2_group8_polySurface4_tnt_crate_01_0"
		}
	],
	"materials":[
		{
			"doubleSided":true,
			"name":"tnt_crate_01",
			"normalTexture":{
				"index":0
			},
			"occlusionTexture":{
				"index":1
			},
			"pbrMetallicRoughness":{
				"baseColorTexture":{
					"index":2
				},
				"metallicRoughnessTexture":{
					"index":1
				}
			}
		}
	],
	"meshes":[
		{
			"name":"high_tnt_crate2_group8_polySurface4_tnt_crate_01_0",
			"primitives":[
				{
					"attributes":{
						"POSITION":0,
						"NORMAL":1,
						"TEXCOORD_0":2
					},
					"indices":3,
					"material":0
				}
			]
		}
	],
	"textures":[
		{
			"sampler":0,
			"source":0
		},
		{
			"sampler":0,
			"source":1
		},
		{
			"sampler":0,
			"source":2
		}
	],
	"images":[
		{
			"mimeType":"image/png",
			"name":"Image_2",
			"uri":"textures/Image_2.png"
		},
		{
			"mimeType":"image/png",
			"name":"Image_1",
			"uri":"textures/Image_1.png"
		},
		{
			"mimeType":"image/jpeg",
			"name":"Image_0",
			"uri":"textures/Image_0.jpg"
		}
	],
	"accessors":[
		{
			"bufferView":0,
			"componentType":5126,
			"count":2537,
			"max":[
				15.365870475769043,
				1.842982530593872,
				-12.126140594482422
			],
			"min":[
				11.06621265411377,
				-2.07680082321167,
				-16.35885238647461
			],
			"type":"VEC3"
		},
		{
			"bufferView":1,
			"componentType":5126,
			"count":2537,
			"type":"VEC3"
		},
		{
			"bufferView":2,
			"componentType":5126,
			"count":2537,
			"type":"VEC2"
		},
		{
			"bufferView":3,
			"componentType":5123,
			"count":10704,
			"type":"SCALAR"
		}
	],
	"bufferViews":[
		{
			"buffer":0,
			"byteLength":30444,
			"byteOffset":0,
			"target":34962
		},
		{
			"buffer":0,
			"byteLength":30444,
			"byteOffset":30444,
			"target":34962
		},
		{
			"buffer":0,
			"byteLength":20296,
			"byteOffset":60888,
			"target":34962
		},
		{
			"buffer":0,
			"byteLength":21408,
			"byteOffset":81184,
			"target":34963
		}
	],
	"samplers":[
		{
			"magFilter":9729,
			"minFilter":9987
		}
	],
	"buffers":[
		{
			"byteLength":102592,
			"uri":"box3.bin"
		}
	]
}
