{
	"asset":{
		"generator":"Khronos glTF Blender I/O v4.1.63",
		"version":"2.0"
	},
	"scene":0,
	"scenes":[
		{
			"name":"Scene",
			"nodes":[
				0
			]
		}
	],
	"nodes":[
		{
			"mesh":0,
			"name":"Object_2"
		}
	],
	"materials":[
		{
			"doubleSided":true,
			"name":"base1",
			"pbrMetallicRoughness":{
				"baseColorFactor":[
					0.5070679783821106,
					0.49152299761772156,
					0.2353149950504303,
					1
				],
				"metallicFactor":0,
				"roughnessFactor":0.032378003001213074
			}
		}
	],
	"meshes":[
		{
			"name":"Object_0.001",
			"primitives":[
				{
					"attributes":{
						"POSITION":0,
						"NORMAL":1,
						"TEXCOORD_0":2
					},
					"indices":3,
					"material":0
				}
			]
		}
	],
	"accessors":[
		{
			"bufferView":0,
			"componentType":5126,
			"count":8682,
			"max":[
				1.8155996799468994,
				14.876394271850586,
				-14.189075469970703
			],
			"min":[
				-8.301582336425781,
				-0.668546199798584,
				-18.92475700378418
			],
			"type":"VEC3"
		},
		{
			"bufferView":1,
			"componentType":5126,
			"count":8682,
			"type":"VEC3"
		},
		{
			"bufferView":2,
			"componentType":5126,
			"count":8682,
			"type":"VEC2"
		},
		{
			"bufferView":3,
			"componentType":5123,
			"count":13023,
			"type":"SCALAR"
		}
	],
	"bufferViews":[
		{
			"buffer":0,
			"byteLength":104184,
			"byteOffset":0,
			"target":34962
		},
		{
			"buffer":0,
			"byteLength":104184,
			"byteOffset":104184,
			"target":34962
		},
		{
			"buffer":0,
			"byteLength":69456,
			"byteOffset":208368,
			"target":34962
		},
		{
			"buffer":0,
			"byteLength":26046,
			"byteOffset":277824,
			"target":34963
		}
	],
	"buffers":[
		{
			"byteLength":303872,
			"uri":"freeman.bin"
		}
	]
}
