{
	"asset":{
		"generator":"Khronos glTF Blender I/O v4.1.63",
		"version":"2.0"
	},
	"scene":0,
	"scenes":[
		{
			"name":"Scene",
			"nodes":[
				0
			]
		}
	],
	"nodes":[
		{
			"mesh":0,
			"name":"high_poly_teapot"
		}
	],
	"materials":[
		{
			"doubleSided":true,
			"name":"teapot",
			"normalTexture":{
				"index":0
			},
			"occlusionTexture":{
				"index":1
			},
			"pbrMetallicRoughness":{
				"baseColorTexture":{
					"index":2
				},
				"metallicFactor":0,
				"metallicRoughnessTexture":{
					"index":1
				},
				"roughnessFactor":0.1976740062236786
			}
		}
	],
	"meshes":[
		{
			"name":"Object_0.003",
			"primitives":[
				{
					"attributes":{
						"POSITION":0,
						"NORMAL":1,
						"TEXCOORD_0":2
					},
					"indices":3,
					"material":0
				}
			]
		}
	],
	"textures":[
		{
			"sampler":0,
			"source":0
		},
		{
			"sampler":0,
			"source":1
		},
		{
			"sampler":0,
			"source":2
		}
	],
	"images":[
		{
			"mimeType":"image/jpeg",
			"name":"Image_2",
			"uri":"Image_2.jpg"
		},
		{
			"mimeType":"image/png",
			"name":"Image_1",
			"uri":"Image_1.png"
		},
		{
			"mimeType":"image/jpeg",
			"name":"Image_0",
			"uri":"Image_0.jpg"
		}
	],
	"accessors":[
		{
			"bufferView":0,
			"componentType":5126,
			"count":7805,
			"max":[
				46.89590072631836,
				19.388370513916016,
				-17.381793975830078
			],
			"min":[
				4.513374328613281,
				-2.3562991619110107,
				-44.578956604003906
			],
			"type":"VEC3"
		},
		{
			"bufferView":1,
			"componentType":5126,
			"count":7805,
			"type":"VEC3"
		},
		{
			"bufferView":2,
			"componentType":5126,
			"count":7805,
			"type":"VEC2"
		},
		{
			"bufferView":3,
			"componentType":5123,
			"count":42888,
			"type":"SCALAR"
		}
	],
	"bufferViews":[
		{
			"buffer":0,
			"byteLength":93660,
			"byteOffset":0,
			"target":34962
		},
		{
			"buffer":0,
			"byteLength":93660,
			"byteOffset":93660,
			"target":34962
		},
		{
			"buffer":0,
			"byteLength":62440,
			"byteOffset":187320,
			"target":34962
		},
		{
			"buffer":0,
			"byteLength":85776,
			"byteOffset":249760,
			"target":34963
		}
	],
	"samplers":[
		{
			"magFilter":9729,
			"minFilter":9987
		}
	],
	"buffers":[
		{
			"byteLength":335536,
			"uri":"teapot.bin"
		}
	]
}
